<?xml version="1.0" encoding="utf-8"?>
<!-- Generator: Adobe Illustrator 24.2.3, SVG Export Plug-In . SVG Version: 6.00 Build 0)  -->
<svg version="1.1" id="Layer_1" xmlns="http://www.w3.org/2000/svg" xmlns:xlink="http://www.w3.org/1999/xlink" x="0px" y="0px"
	 viewBox="0 0 1920 1080" style="enable-background:new 0 0 1920 1080;" xml:space="preserve">
<style type="text/css">
	.st0{fill:#FFFFFF;}
	.st1{fill:#661F09;}
</style>
<g>
	<rect x="637.5" y="386.5" class="st0" width="143" height="157"/>
	<path d="M780,387v156H638V387H780 M781,386H637v158h144V386L781,386z"/>
</g>
<g>
	<rect x="664.5" y="424.5" class="st1" width="90" height="14"/>
	<path d="M754,425v13h-89v-13H754 M755,424h-91v15h91V424L755,424z"/>
</g>
<g>
	<rect x="686.5" y="458.5" class="st1" width="68" height="14"/>
	<path d="M754,459v13h-67v-13H754 M755,458h-69v15h69V458L755,458z"/>
</g>
<g>
	<rect x="664.5" y="492.5" class="st1" width="90" height="14"/>
	<path d="M754,493v13h-89v-13H754 M755,492h-91v15h91V492L755,492z"/>
</g>
</svg>
